<?xml version="1.0" encoding="UTF-8"?>
<!DOCTYPE svg PUBLIC "-//W3C//DTD SVG 1.1//EN" "http://www.w3.org/Graphics/SVG/1.1/DTD/svg11.dtd">
<svg xmlns="http://www.w3.org/2000/svg" version="1.1" width="512px" height="512px" style="shape-rendering:geometricPrecision; text-rendering:geometricPrecision; image-rendering:optimizeQuality; fill-rule:evenodd; clip-rule:evenodd" xmlns:xlink="http://www.w3.org/1999/xlink">
<g><path style="opacity:1" fill="#fdfdf3" d="M -0.5,-0.5 C 42.1667,-0.5 84.8333,-0.5 127.5,-0.5C 127.5,-0.166667 127.5,0.166667 127.5,0.5C 102.498,0.333363 77.4978,0.50003 52.5,1C 50.6183,1.19808 48.9516,1.69808 47.5,2.5C 38.6613,5.25322 30.6613,9.58656 23.5,15.5C 20.5,17.8333 17.8333,20.5 15.5,23.5C 5.48117,34.8867 0.814502,48.22 1.5,63.5C 0.533345,175.496 0.200012,287.496 0.5,399.5C 0.166667,399.5 -0.166667,399.5 -0.5,399.5C -0.5,266.167 -0.5,132.833 -0.5,-0.5 Z"/></g>
<g><path style="opacity:1" fill="#fdfcee" d="M 127.5,0.5 C 127.5,0.166667 127.5,-0.166667 127.5,-0.5C 255.5,-0.5 383.5,-0.5 511.5,-0.5C 511.5,132.833 511.5,266.167 511.5,399.5C 511.167,399.5 510.833,399.5 510.5,399.5C 510.5,295.5 510.5,191.5 510.5,87.5C 510.667,75.4954 510.5,63.4954 510,51.5C 509.79,49.9419 509.29,48.6085 508.5,47.5C 507.044,44.3856 505.878,41.0523 505,37.5C 504.186,34.8233 502.686,32.8233 500.5,31.5C 497.623,25.1343 493.29,19.801 487.5,15.5C 480.251,10.041 472.251,5.87429 463.5,3C 447.536,1.63417 431.536,1.13417 415.5,1.5C 319.668,0.500583 223.668,0.16725 127.5,0.5 Z"/></g>
<g><path style="opacity:1" fill="#f8d689" d="M 127.5,0.5 C 223.668,0.16725 319.668,0.500583 415.5,1.5C 400.833,1.5 386.167,1.5 371.5,1.5C 290.167,1.5 208.833,1.5 127.5,1.5C 100.824,1.33348 74.1577,1.66682 47.5,2.5C 48.9516,1.69808 50.6183,1.19808 52.5,1C 77.4978,0.50003 102.498,0.333363 127.5,0.5 Z"/></g>
<g><path style="opacity:1" fill="#fea501" d="M 127.5,1.5 C 111.662,2.16666 95.6616,2.83333 79.5,3.5C 84.7921,4.49485 90.1254,4.82818 95.5,4.5C 103.138,5.83114 111.138,6.49781 119.5,6.5C 228.846,5.16675 338.179,5.33342 447.5,7C 426.237,4.72343 404.904,3.8901 383.5,4.5C 393.992,3.66962 404.659,3.16962 415.5,3C 400.661,2.83125 385.994,2.33125 371.5,1.5C 386.167,1.5 400.833,1.5 415.5,1.5C 431.536,1.13417 447.536,1.63417 463.5,3C 472.251,5.87429 480.251,10.041 487.5,15.5C 487.852,18.1485 488.185,20.8152 488.5,23.5C 490.115,24.154 491.782,24.654 493.5,25C 495.993,27.1428 498.327,29.3094 500.5,31.5C 502.686,32.8233 504.186,34.8233 505,37.5C 505.878,41.0523 507.044,44.3856 508.5,47.5C 508.728,61.0105 509.395,74.3438 510.5,87.5C 510.5,191.5 510.5,295.5 510.5,399.5C 510.167,399.5 509.833,399.5 509.5,399.5C 509.611,420.843 509.278,442.176 508.5,463.5C 506.853,467.424 505.186,471.424 503.5,475.5C 503.34,477.153 502.674,478.486 501.5,479.5C 499.592,480.486 498.592,482.152 498.5,484.5C 492.51,490.486 486.177,496.153 479.5,501.5C 474.086,503.879 468.752,506.213 463.5,508.5C 442.176,509.278 420.843,509.611 399.5,509.5C 399.5,509.833 399.5,510.167 399.5,510.5C 287.495,510.782 175.495,510.449 63.5,509.5C 58.6042,507.554 53.2709,506.887 47.5,507.5C 47.6602,505.801 47.4935,504.134 47,502.5C 43.0223,505.421 39.5223,504.921 36.5,501C 34.8659,500.506 33.1992,500.34 31.5,500.5C 31.6309,499.624 31.2975,498.957 30.5,498.5C 28.6984,497.014 26.6984,496.014 24.5,495.5C 15.8941,489.547 9.89414,481.547 6.5,471.5C 9.06138,463.921 10.3947,455.921 10.5,447.5C 9.5,447.5 8.5,447.5 7.5,447.5C 4.85417,322.167 4.85417,196.833 7.5,71.5C 7.16667,68.8333 6.83333,66.1667 6.5,63.5C 6.16667,64 5.83333,64.5 5.5,65C 6.03672,66.7918 6.37006,68.6251 6.5,70.5C 4.9343,78.086 4.26763,85.7526 4.5,93.5C 3.77842,93.0825 3.27842,92.4158 3,91.5C 1.58826,194.16 1.08826,296.826 1.5,399.5C 1.16667,399.5 0.833333,399.5 0.5,399.5C 0.200012,287.496 0.533345,175.496 1.5,63.5C 0.814502,48.22 5.48117,34.8867 15.5,23.5C 19.1667,21.8333 21.8333,19.1667 23.5,15.5C 30.6613,9.58656 38.6613,5.25322 47.5,2.5C 74.1577,1.66682 100.824,1.33348 127.5,1.5 Z"/></g>
<g><path style="opacity:1" fill="#f5a907" d="M 383.5,4.5 C 404.904,3.8901 426.237,4.72343 447.5,7C 338.179,5.33342 228.846,5.16675 119.5,6.5C 111.138,6.49781 103.138,5.83114 95.5,4.5C 191.504,3.26187 287.504,3.26187 383.5,4.5 Z"/></g>
<g><path style="opacity:1" fill="#fe9e00" d="M 127.5,1.5 C 208.833,1.5 290.167,1.5 371.5,1.5C 385.994,2.33125 400.661,2.83125 415.5,3C 404.659,3.16962 393.992,3.66962 383.5,4.5C 287.504,3.26187 191.504,3.26187 95.5,4.5C 90.1254,4.82818 84.7921,4.49485 79.5,3.5C 95.6616,2.83333 111.662,2.16666 127.5,1.5 Z"/></g>
<g><path style="opacity:1" fill="#f4c877" d="M 23.5,15.5 C 21.8333,19.1667 19.1667,21.8333 15.5,23.5C 17.8333,20.5 20.5,17.8333 23.5,15.5 Z"/></g>
<g><path style="opacity:1" fill="#f2b02b" d="M 487.5,15.5 C 493.29,19.801 497.623,25.1343 500.5,31.5C 498.327,29.3094 495.993,27.1428 493.5,25C 491.782,24.654 490.115,24.154 488.5,23.5C 488.185,20.8152 487.852,18.1485 487.5,15.5 Z"/></g>
<g><path style="opacity:1" fill="#fce6a3" d="M 508.5,47.5 C 509.29,48.6085 509.79,49.9419 510,51.5C 510.5,63.4954 510.667,75.4954 510.5,87.5C 509.395,74.3438 508.728,61.0105 508.5,47.5 Z"/></g>
<g><path style="opacity:1" fill="#f0b726" d="M 310.5,129.5 C 310.5,129.833 310.5,130.167 310.5,130.5C 307.848,130.41 305.515,131.076 303.5,132.5C 300.052,133.39 297.052,135.057 294.5,137.5C 294.167,137.5 293.833,137.5 293.5,137.5C 297.119,131.132 302.786,128.466 310.5,129.5 Z"/></g>
<g><path style="opacity:1" fill="#fefefd" d="M 359.5,134.5 C 362.947,137.438 366.947,139.438 371.5,140.5C 373.598,144.568 376.931,147.235 381.5,148.5C 386.186,147.491 390.853,146.491 395.5,145.5C 402.863,144.482 409.53,141.815 415.5,137.5C 415.5,136.167 416.167,135.5 417.5,135.5C 418.496,135.586 419.329,135.252 420,134.5C 420.167,135.333 420.333,136.167 420.5,137C 418.699,140.102 417.033,143.268 415.5,146.5C 415.608,148.514 414.942,150.18 413.5,151.5C 410.427,153.569 408.094,156.236 406.5,159.5C 403.491,161.21 401.158,163.543 399.5,166.5C 397.2,166.522 396.033,167.522 396,169.5C 397.776,170.536 399.609,170.536 401.5,169.5C 406.371,169.578 406.371,170.745 401.5,173C 404.408,173.689 407.075,174.855 409.5,176.5C 406.167,179.167 403.167,182.167 400.5,185.5C 399.167,186.833 399.167,188.167 400.5,189.5C 402.968,185.586 405.968,182.086 409.5,179C 411.154,178.804 412.154,179.637 412.5,181.5C 409.425,185.242 406.091,188.575 402.5,191.5C 401.167,191.5 399.833,191.5 398.5,191.5C 398.5,193.833 398.5,196.167 398.5,198.5C 397.548,204.075 397.214,209.741 397.5,215.5C 397.5,218.167 397.5,220.833 397.5,223.5C 396.194,228.616 395.527,233.949 395.5,239.5C 393.546,244.693 392.212,250.027 391.5,255.5C 389.723,258.505 388.723,261.838 388.5,265.5C 388.06,267.844 387.06,269.844 385.5,271.5C 384.698,270.048 384.198,268.382 384,266.5C 383.092,273.748 381.592,280.748 379.5,287.5C 377.229,289.612 375.896,292.279 375.5,295.5C 373.604,297.837 372.27,300.504 371.5,303.5C 369.071,304.265 367.738,305.931 367.5,308.5C 366.278,312.612 364.278,316.279 361.5,319.5C 360.325,319.281 359.325,319.614 358.5,320.5C 357.211,323.769 355.544,326.769 353.5,329.5C 351.919,331.142 351.253,333.142 351.5,335.5C 350.448,335.351 349.448,335.517 348.5,336C 343.213,341.116 338.213,346.283 333.5,351.5C 328.804,354.843 324.137,358.176 319.5,361.5C 315.867,361.799 313.867,363.799 313.5,367.5C 309.495,368.498 306.161,370.498 303.5,373.5C 297.059,376.555 290.726,379.888 284.5,383.5C 274.554,386.643 264.888,390.309 255.5,394.5C 252.505,394.294 249.838,394.96 247.5,396.5C 244.615,396.194 241.948,396.527 239.5,397.5C 233.916,397.255 228.583,397.922 223.5,399.5C 223.5,399.833 223.5,400.167 223.5,400.5C 207.486,400.657 191.486,400.324 175.5,399.5C 170.518,397.261 165.184,396.261 159.5,396.5C 158.833,396.5 158.167,396.5 157.5,396.5C 154.457,394.449 151.124,392.949 147.5,392C 144.854,391.503 142.187,391.336 139.5,391.5C 138.093,389.386 136.093,387.886 133.5,387C 131.527,386.505 129.527,386.338 127.5,386.5C 125.544,385.508 123.544,384.508 121.5,383.5C 117.08,379.298 111.746,376.965 105.5,376.5C 104.167,375.833 102.833,375.167 101.5,374.5C 101.389,373.883 101.056,373.383 100.5,373C 106.681,372.828 112.681,372.328 118.5,371.5C 121.713,371.81 124.713,371.477 127.5,370.5C 133.114,370.927 138.447,370.26 143.5,368.5C 147.354,367.709 151.021,366.209 154.5,364C 156.134,363.506 157.801,363.34 159.5,363.5C 161.666,363.579 163.666,364.246 165.5,365.5C 166.167,365.167 166.833,364.833 167.5,364.5C 166.624,363.749 165.624,363.249 164.5,363C 167.485,360.387 170.818,359.554 174.5,360.5C 180.518,356.464 186.185,352.13 191.5,347.5C 191.5,346.833 191.5,346.167 191.5,345.5C 194.764,345.274 195.764,343.774 194.5,341C 186.439,340.567 178.772,338.734 171.5,335.5C 170.393,333.031 168.393,332.031 165.5,332.5C 165.5,330.833 165.5,329.167 165.5,327.5C 167.199,327.66 168.866,327.494 170.5,327C 170.167,326.667 169.833,326.333 169.5,326C 166.023,327.071 162.356,327.404 158.5,327C 156.886,324.873 154.886,323.373 152.5,322.5C 150.196,320.501 147.863,318.501 145.5,316.5C 143.18,312.842 140.846,309.175 138.5,305.5C 138.539,304.417 138.873,303.417 139.5,302.5C 137.585,300.929 136.585,298.929 136.5,296.5C 142.034,296.332 147.367,295.665 152.5,294.5C 154.833,294.5 157.167,294.5 159.5,294.5C 159.5,293.167 159.5,291.833 159.5,290.5C 157.245,288.62 154.578,287.62 151.5,287.5C 151.5,286.5 151.5,285.5 151.5,284.5C 149.5,284.5 147.5,284.5 145.5,284.5C 142.262,283.262 139.262,281.596 136.5,279.5C 133.5,276.833 130.5,274.167 127.5,271.5C 126.92,269.251 125.587,267.585 123.5,266.5C 120.985,262.962 118.651,259.295 116.5,255.5C 116.975,252.687 115.975,250.687 113.5,249.5C 112.357,246.316 111.691,242.983 111.5,239.5C 110.725,234.203 110.392,228.87 110.5,223.5C 111.338,223.842 111.672,224.508 111.5,225.5C 115.085,227.806 119.085,229.139 123.5,229.5C 127.946,231.027 132.613,232.027 137.5,232.5C 137.649,231.448 137.483,230.448 137,229.5C 134.31,227.973 132.143,225.973 130.5,223.5C 130.5,221.5 129.5,220.5 127.5,220.5C 111.684,201.712 106.351,180.045 111.5,155.5C 112.5,155.5 113.5,155.5 114.5,155.5C 114.337,153.143 114.503,150.81 115,148.5C 116.883,147.347 117.716,145.681 117.5,143.5C 118.833,143.5 120.167,143.5 121.5,143.5C 136.847,161.523 154.847,176.19 175.5,187.5C 177.825,189.436 180.492,190.77 183.5,191.5C 186.205,192.853 188.872,194.186 191.5,195.5C 196.594,197.799 201.927,199.466 207.5,200.5C 207.47,201.497 207.97,202.164 209,202.5C 213.073,203.874 217.24,204.874 221.5,205.5C 222.713,205.747 223.38,206.414 223.5,207.5C 228.599,209.101 233.933,210.101 239.5,210.5C 242.833,210.833 246.167,211.167 249.5,211.5C 253.298,212.483 257.298,212.817 261.5,212.5C 261.334,203.494 261.5,194.494 262,185.5C 264.017,180.753 265.183,175.753 265.5,170.5C 266.441,168.95 267.107,167.284 267.5,165.5C 269.975,164.313 270.975,162.313 270.5,159.5C 271.338,159.158 271.672,158.492 271.5,157.5C 273.716,156.797 275.549,155.464 277,153.5C 279.741,150.271 282.241,146.938 284.5,143.5C 285.5,143.5 286.5,143.5 287.5,143.5C 288.455,140.545 290.455,138.545 293.5,137.5C 293.833,137.5 294.167,137.5 294.5,137.5C 300.43,136.934 306.43,136.767 312.5,137C 314.449,135.165 316.783,133.999 319.5,133.5C 318.667,133.167 317.833,132.833 317,132.5C 313.112,133.878 309.112,134.878 305,135.5C 301.465,135.215 300.965,134.215 303.5,132.5C 305.515,131.076 307.848,130.41 310.5,130.5C 321.771,128.005 333.105,127.838 344.5,130C 347.464,130.84 347.797,131.84 345.5,133C 350.236,134.37 354.903,134.87 359.5,134.5 Z"/></g>
<g><path style="opacity:1" fill="#faf2d5" d="M 359.5,134.5 C 354.903,134.87 350.236,134.37 345.5,133C 347.797,131.84 347.464,130.84 344.5,130C 333.105,127.838 321.771,128.005 310.5,130.5C 310.5,130.167 310.5,129.833 310.5,129.5C 324.141,126.792 337.808,126.959 351.5,130C 354.099,131.795 356.766,133.295 359.5,134.5 Z"/></g>
<g><path style="opacity:1" fill="#fefae6" d="M 303.5,132.5 C 300.965,134.215 301.465,135.215 305,135.5C 309.112,134.878 313.112,133.878 317,132.5C 317.833,132.833 318.667,133.167 319.5,133.5C 316.783,133.999 314.449,135.165 312.5,137C 306.43,136.767 300.43,136.934 294.5,137.5C 297.052,135.057 300.052,133.39 303.5,132.5 Z"/></g>
<g><path style="opacity:1" fill="#fef0c8" d="M 415.5,137.5 C 409.53,141.815 402.863,144.482 395.5,145.5C 395.5,144.833 395.5,144.167 395.5,143.5C 402.357,142.068 409.023,140.068 415.5,137.5 Z"/></g>
<g><path style="opacity:1" fill="#fdde9b" d="M 419.5,142.5 C 418.717,144.328 417.384,145.661 415.5,146.5C 417.033,143.268 418.699,140.102 420.5,137C 420.333,136.167 420.167,135.333 420,134.5C 419.329,135.252 418.496,135.586 417.5,135.5C 418.635,133.787 420.302,133.12 422.5,133.5C 422.871,137.003 421.871,140.003 419.5,142.5 Z"/></g>
<g><path style="opacity:1" fill="#ffddad" d="M 121.5,143.5 C 120.167,143.5 118.833,143.5 117.5,143.5C 117.5,142.5 117.5,141.5 117.5,140.5C 119.973,140.088 121.306,141.088 121.5,143.5 Z"/></g>
<g><path style="opacity:1" fill="#efb835" d="M 371.5,140.5 C 372.5,140.5 373.5,140.5 374.5,140.5C 374.5,141.5 374.5,142.5 374.5,143.5C 377.513,143.372 380.013,144.372 382,146.5C 386.452,145.18 390.952,144.18 395.5,143.5C 395.5,144.167 395.5,144.833 395.5,145.5C 390.853,146.491 386.186,147.491 381.5,148.5C 376.931,147.235 373.598,144.568 371.5,140.5 Z"/></g>
<g><path style="opacity:1" fill="#fbde9a" d="M 284.5,143.5 C 282.241,146.938 279.741,150.271 277,153.5C 275.549,155.464 273.716,156.797 271.5,157.5C 275.127,152.206 279.46,147.539 284.5,143.5 Z"/></g>
<g><path style="opacity:1" fill="#f8ac1c" d="M 419.5,142.5 C 419.166,147.713 421,149.38 425,147.5C 425.273,145.899 425.773,144.399 426.5,143C 427.635,142.251 428.635,142.417 429.5,143.5C 428.512,146.45 427.679,149.45 427,152.5C 426.261,153.574 425.261,154.241 424,154.5C 421.276,153.313 418.443,152.647 415.5,152.5C 415.719,153.675 415.386,154.675 414.5,155.5C 407.547,158.62 407.88,160.12 415.5,160C 412.833,160.333 410.167,160.667 407.5,161C 406.931,163.903 405.265,165.903 402.5,167C 405.161,167.062 407.495,166.062 409.5,164C 413.152,163.501 416.818,163.335 420.5,163.5C 414.645,166.544 408.311,168.211 401.5,168.5C 400.167,168.5 399.5,167.833 399.5,166.5C 401.158,163.543 403.491,161.21 406.5,159.5C 409.52,157.477 411.854,154.81 413.5,151.5C 414.942,150.18 415.608,148.514 415.5,146.5C 417.384,145.661 418.717,144.328 419.5,142.5 Z"/></g>
<g><path style="opacity:1" fill="#f5a907" d="M 506.5,90.5 C 507.822,198.835 507.822,307.168 506.5,415.5C 506.832,426.187 506.499,436.854 505.5,447.5C 505.167,439.5 504.833,431.5 504.5,423.5C 505.833,311.5 505.833,199.5 504.5,87.5C 504.833,79.5 505.167,71.5 505.5,63.5C 506.498,72.4754 506.832,81.4754 506.5,90.5 Z"/></g>
<g><path style="opacity:1" fill="#fe9e00" d="M 509.5,399.5 C 508.67,408.658 508.17,417.991 508,427.5C 507.824,423.312 507.324,419.312 506.5,415.5C 507.822,307.168 507.822,198.835 506.5,90.5C 507.314,88.369 507.814,86.0356 508,83.5C 508.333,87.5 508.667,91.5 509,95.5C 509.5,196.833 509.667,298.166 509.5,399.5 Z"/></g>
<g><path style="opacity:1" fill="#fee5ac" d="M 117.5,143.5 C 117.716,145.681 116.883,147.347 115,148.5C 114.503,150.81 114.337,153.143 114.5,155.5C 113.5,155.5 112.5,155.5 111.5,155.5C 112.32,150.801 114.32,146.801 117.5,143.5 Z"/></g>
<g><path style="opacity:1" fill="#f7cd67" d="M 413.5,151.5 C 411.854,154.81 409.52,157.477 406.5,159.5C 408.094,156.236 410.427,153.569 413.5,151.5 Z"/></g>
<g><path style="opacity:1" fill="#f9dd9d" d="M 270.5,159.5 C 270.975,162.313 269.975,164.313 267.5,165.5C 268.508,163.456 269.508,161.456 270.5,159.5 Z"/></g>
<g><path style="opacity:1" fill="#f3ce6c" d="M 429.5,163.5 C 427.653,162.427 425.653,162.427 423.5,163.5C 424.492,161.974 425.992,161.307 428,161.5C 429.167,161.833 430.333,162.167 431.5,162.5C 431.043,163.298 430.376,163.631 429.5,163.5 Z"/></g>
<g><path style="opacity:1" fill="#fe9f01" d="M 4.5,93.5 C 3.03647,206.169 3.20313,318.836 5,431.5C 6.54155,436.313 6.70821,441.147 5.5,446C 7.02009,451.389 8.02009,456.889 8.5,462.5C 6.95467,463.452 5.28801,463.785 3.5,463.5C 3.48801,452.641 2.82134,441.974 1.5,431.5C 1.5,420.833 1.5,410.167 1.5,399.5C 1.08826,296.826 1.58826,194.16 3,91.5C 3.27842,92.4158 3.77842,93.0825 4.5,93.5 Z"/></g>
<g><path style="opacity:1" fill="#f5a907" d="M 6.5,471.5 C 4.98023,469.11 3.98023,466.443 3.5,463.5C 5.28801,463.785 6.95467,463.452 8.5,462.5C 8.02009,456.889 7.02009,451.389 5.5,446C 6.70821,441.147 6.54155,436.313 5,431.5C 3.20313,318.836 3.03647,206.169 4.5,93.5C 4.26763,85.7526 4.9343,78.086 6.5,70.5C 6.37006,68.6251 6.03672,66.7918 5.5,65C 5.83333,64.5 6.16667,64 6.5,63.5C 6.83333,66.1667 7.16667,68.8333 7.5,71.5C 4.85417,196.833 4.85417,322.167 7.5,447.5C 8.5,447.5 9.5,447.5 10.5,447.5C 10.3947,455.921 9.06138,463.921 6.5,471.5 Z"/></g>
<g><path style="opacity:1" fill="#e6c56e" d="M 399.5,166.5 C 399.5,167.833 400.167,168.5 401.5,168.5C 401.5,168.833 401.5,169.167 401.5,169.5C 399.609,170.536 397.776,170.536 396,169.5C 396.033,167.522 397.2,166.522 399.5,166.5 Z"/></g>
<g><path style="opacity:1" fill="#fafaf0" d="M 429.5,163.5 C 429.5,163.833 429.5,164.167 429.5,164.5C 426.517,167.76 423.517,171.094 420.5,174.5C 419.675,175.386 418.675,175.719 417.5,175.5C 417.271,177.433 416.438,179.1 415,180.5C 414.329,181.252 413.496,181.586 412.5,181.5C 412.154,179.637 411.154,178.804 409.5,179C 405.968,182.086 402.968,185.586 400.5,189.5C 399.167,188.167 399.167,186.833 400.5,185.5C 403.167,182.167 406.167,179.167 409.5,176.5C 407.075,174.855 404.408,173.689 401.5,173C 406.371,170.745 406.371,169.578 401.5,169.5C 401.5,169.167 401.5,168.833 401.5,168.5C 408.311,168.211 414.645,166.544 420.5,163.5C 421.5,163.5 422.5,163.5 423.5,163.5C 425.653,162.427 427.653,162.427 429.5,163.5 Z"/></g>
<g><path style="opacity:1" fill="#f7d27a" d="M 175.5,187.5 C 178.852,187.53 181.518,188.863 183.5,191.5C 180.492,190.77 177.825,189.436 175.5,187.5 Z"/></g>
<g><path style="opacity:1" fill="#ebb83a" d="M 191.5,195.5 C 194.187,195.336 196.854,195.503 199.5,196C 202.503,197.21 205.17,198.71 207.5,200.5C 201.927,199.466 196.594,197.799 191.5,195.5 Z"/></g>
<g><path style="opacity:1" fill="#f8ac1e" d="M 429.5,164.5 C 429.141,166.371 428.141,167.871 426.5,169C 427.051,170.398 427.384,171.732 427.5,173C 426.672,173.915 425.672,174.581 424.5,175C 428.65,176.756 429.483,179.59 427,183.5C 423.75,188.521 419.584,189.521 414.5,186.5C 414.941,189.05 414.941,191.717 414.5,194.5C 413.781,192.483 412.614,190.817 411,189.5C 409.24,190.63 407.407,191.63 405.5,192.5C 406.306,195.446 407.639,198.112 409.5,200.5C 406.138,201.9 402.971,201.567 400,199.5C 399.48,205.025 398.647,210.358 397.5,215.5C 397.214,209.741 397.548,204.075 398.5,198.5C 399.576,196.014 400.909,193.681 402.5,191.5C 406.091,188.575 409.425,185.242 412.5,181.5C 413.496,181.586 414.329,181.252 415,180.5C 416.438,179.1 417.271,177.433 417.5,175.5C 418.675,175.719 419.675,175.386 420.5,174.5C 423.517,171.094 426.517,167.76 429.5,164.5 Z"/></g>
<g><path style="opacity:1" fill="#fbdc90" d="M 402.5,191.5 C 400.909,193.681 399.576,196.014 398.5,198.5C 398.5,196.167 398.5,193.833 398.5,191.5C 399.833,191.5 401.167,191.5 402.5,191.5 Z"/></g>
<g><path style="opacity:1" fill="#fdf0b6" d="M 265.5,170.5 C 265.183,175.753 264.017,180.753 262,185.5C 261.5,194.494 261.334,203.494 261.5,212.5C 257.298,212.817 253.298,212.483 249.5,211.5C 253.167,211.5 256.833,211.5 260.5,211.5C 260.5,202.5 260.5,193.5 260.5,184.5C 261.747,179.614 263.414,174.947 265.5,170.5 Z"/></g>
<g><path style="opacity:1" fill="#fcf0c8" d="M 223.5,207.5 C 228.93,207.536 234.263,208.203 239.5,209.5C 239.5,209.833 239.5,210.167 239.5,210.5C 233.933,210.101 228.599,209.101 223.5,207.5 Z"/></g>
<g><path style="opacity:1" fill="#eeb340" d="M 260.5,184.5 C 260.5,193.5 260.5,202.5 260.5,211.5C 256.833,211.5 253.167,211.5 249.5,211.5C 246.167,211.167 242.833,210.833 239.5,210.5C 239.5,210.167 239.5,209.833 239.5,209.5C 246.159,209.954 252.826,210.287 259.5,210.5C 259.174,201.651 259.507,192.984 260.5,184.5 Z"/></g>
<g><path style="opacity:1" fill="#e5c25d" d="M 127.5,220.5 C 129.5,220.5 130.5,221.5 130.5,223.5C 129.5,223.5 128.5,223.5 127.5,223.5C 127.5,222.5 127.5,221.5 127.5,220.5 Z"/></g>
<g><path style="opacity:1" fill="#f2c466" d="M 111.5,225.5 C 116.058,225.466 120.058,226.8 123.5,229.5C 119.085,229.139 115.085,227.806 111.5,225.5 Z"/></g>
<g><path style="opacity:1" fill="#fce8af" d="M 110.5,223.5 C 110.392,228.87 110.725,234.203 111.5,239.5C 110.188,237.257 109.522,234.59 109.5,231.5C 109.503,228.645 109.836,225.978 110.5,223.5 Z"/></g>
<g><path style="opacity:1" fill="#eeb535" d="M 130.5,223.5 C 132.143,225.973 134.31,227.973 137,229.5C 137.483,230.448 137.649,231.448 137.5,232.5C 132.613,232.027 127.946,231.027 123.5,229.5C 126.247,229.813 128.914,229.48 131.5,228.5C 130.691,226.929 130.357,225.262 130.5,223.5 Z"/></g>
<g><path style="opacity:1" fill="#f9c162" d="M 397.5,223.5 C 397.624,229.069 396.957,234.402 395.5,239.5C 395.527,233.949 396.194,228.616 397.5,223.5 Z"/></g>
<g><path style="opacity:1" fill="#f6d691" d="M 113.5,249.5 C 115.975,250.687 116.975,252.687 116.5,255.5C 115.508,253.544 114.508,251.544 113.5,249.5 Z"/></g>
<g><path style="opacity:1" fill="#fdd38c" d="M 391.5,255.5 C 391.277,259.162 390.277,262.495 388.5,265.5C 388.723,261.838 389.723,258.505 391.5,255.5 Z"/></g>
<g><path style="opacity:1" fill="#f5c66f" d="M 123.5,266.5 C 125.587,267.585 126.92,269.251 127.5,271.5C 125.469,270.461 124.136,268.795 123.5,266.5 Z"/></g>
<g><path style="opacity:1" fill="#fcf5d5" d="M 385.5,271.5 C 384.25,274.006 383.584,276.673 383.5,279.5C 381.722,281.946 380.389,284.612 379.5,287.5C 381.592,280.748 383.092,273.748 384,266.5C 384.198,268.382 384.698,270.048 385.5,271.5 Z"/></g>
<g><path style="opacity:1" fill="#f5b12d" d="M 395.5,239.5 C 394.137,246.663 393.304,253.997 393,261.5C 392.74,263.618 391.74,265.284 390,266.5C 389.507,270.968 388.507,275.302 387,279.5C 386.014,278.829 384.847,278.829 383.5,279.5C 383.584,276.673 384.25,274.006 385.5,271.5C 387.06,269.844 388.06,267.844 388.5,265.5C 390.277,262.495 391.277,259.162 391.5,255.5C 392.212,250.027 393.546,244.693 395.5,239.5 Z"/></g>
<g><path style="opacity:1" fill="#fef1cb" d="M 145.5,284.5 C 147.5,284.5 149.5,284.5 151.5,284.5C 151.5,285.5 151.5,286.5 151.5,287.5C 148.687,287.975 146.687,286.975 145.5,284.5 Z"/></g>
<g><path style="opacity:1" fill="#fee3b0" d="M 151.5,287.5 C 154.578,287.62 157.245,288.62 159.5,290.5C 156.284,290.655 153.617,289.655 151.5,287.5 Z"/></g>
<g><path style="opacity:1" fill="#f3ae29" d="M 136.5,279.5 C 139.262,281.596 142.262,283.262 145.5,284.5C 146.687,286.975 148.687,287.975 151.5,287.5C 153.617,289.655 156.284,290.655 159.5,290.5C 159.5,291.833 159.5,293.167 159.5,294.5C 157.167,294.5 154.833,294.5 152.5,294.5C 146.833,294.5 141.167,294.5 135.5,294.5C 135.129,298.696 136.129,302.363 138.5,305.5C 140.846,309.175 143.18,312.842 145.5,316.5C 143.559,316.131 141.725,315.464 140,314.5C 138.808,310.797 137.641,307.13 136.5,303.5C 135.5,303.5 134.5,303.5 133.5,303.5C 133.5,300.167 133.5,296.833 133.5,293.5C 140.8,292.773 148.133,292.273 155.5,292C 151.009,288.595 146.009,287.595 140.5,289C 140.167,288.667 139.833,288.333 139.5,288C 144.594,286.542 144.261,285.709 138.5,285.5C 138.386,283.282 137.72,281.282 136.5,279.5 Z"/></g>
<g><path style="opacity:1" fill="#fff2c6" d="M 152.5,294.5 C 147.367,295.665 142.034,296.332 136.5,296.5C 136.585,298.929 137.585,300.929 139.5,302.5C 138.873,303.417 138.539,304.417 138.5,305.5C 136.129,302.363 135.129,298.696 135.5,294.5C 141.167,294.5 146.833,294.5 152.5,294.5 Z"/></g>
<g><path style="opacity:1" fill="#fbd17c" d="M 375.5,295.5 C 375.104,298.721 373.771,301.388 371.5,303.5C 372.27,300.504 373.604,297.837 375.5,295.5 Z"/></g>
<g><path style="opacity:1" fill="#fadb93" d="M 371.5,303.5 C 371.33,306.204 369.997,307.871 367.5,308.5C 367.738,305.931 369.071,304.265 371.5,303.5 Z"/></g>
<g><path style="opacity:1" fill="#fef1d3" d="M 152.5,322.5 C 154.886,323.373 156.886,324.873 158.5,327C 162.356,327.404 166.023,327.071 169.5,326C 169.833,326.333 170.167,326.667 170.5,327C 168.866,327.494 167.199,327.66 165.5,327.5C 165.5,329.167 165.5,330.833 165.5,332.5C 160.257,330.375 155.923,327.042 152.5,322.5 Z"/></g>
<g><path style="opacity:1" fill="#ffdc9e" d="M 361.5,319.5 C 359.714,323.468 357.047,326.801 353.5,329.5C 355.544,326.769 357.211,323.769 358.5,320.5C 359.325,319.614 360.325,319.281 361.5,319.5 Z"/></g>
<g><path style="opacity:1" fill="#ffe1a5" d="M 165.5,332.5 C 168.393,332.031 170.393,333.031 171.5,335.5C 169.181,335.008 167.181,334.008 165.5,332.5 Z"/></g>
<g><path style="opacity:1" fill="#f4b22c" d="M 171.5,335.5 C 178.772,338.734 186.439,340.567 194.5,341C 195.764,343.774 194.764,345.274 191.5,345.5C 188.751,344.292 186.085,342.792 183.5,341C 179.586,339.717 175.586,338.884 171.5,338.5C 171.5,337.5 171.5,336.5 171.5,335.5 Z"/></g>
<g><path style="opacity:1" fill="#f7b944" d="M 333.5,351.5 C 333.539,352.583 333.873,353.583 334.5,354.5C 332.922,355.298 331.256,355.798 329.5,356C 327.186,359.718 323.853,361.885 319.5,362.5C 319.5,362.167 319.5,361.833 319.5,361.5C 324.137,358.176 328.804,354.843 333.5,351.5 Z"/></g>
<g><path style="opacity:1" fill="#fdf3d5" d="M 191.5,347.5 C 186.185,352.13 180.518,356.464 174.5,360.5C 170.818,359.554 167.485,360.387 164.5,363C 165.624,363.249 166.624,363.749 167.5,364.5C 166.833,364.833 166.167,365.167 165.5,365.5C 163.666,364.246 161.666,363.579 159.5,363.5C 170.396,358.749 181.063,353.415 191.5,347.5 Z"/></g>
<g><path style="opacity:1" fill="#fee5b1" d="M 319.5,361.5 C 319.5,361.833 319.5,362.167 319.5,362.5C 317.95,364.622 315.95,366.289 313.5,367.5C 313.867,363.799 315.867,361.799 319.5,361.5 Z"/></g>
<g><path style="opacity:1" fill="#f5b52a" d="M 127.5,369.5 C 127.5,369.833 127.5,370.167 127.5,370.5C 124.713,371.477 121.713,371.81 118.5,371.5C 111.833,371.5 105.167,371.5 98.5,371.5C 98.6107,370.883 98.944,370.383 99.5,370C 108.827,369.5 118.161,369.334 127.5,369.5 Z"/></g>
<g><path style="opacity:1" fill="#ffe1a6" d="M 143.5,368.5 C 138.447,370.26 133.114,370.927 127.5,370.5C 127.5,370.167 127.5,369.833 127.5,369.5C 132.854,369.431 138.187,369.098 143.5,368.5 Z"/></g>
<g><path style="opacity:1" fill="#f6c565" d="M 313.5,367.5 C 310.97,370.793 307.637,372.793 303.5,373.5C 306.161,370.498 309.495,368.498 313.5,367.5 Z"/></g>
<g><path style="opacity:1" fill="#fee1b5" d="M 98.5,371.5 C 105.167,371.5 111.833,371.5 118.5,371.5C 112.681,372.328 106.681,372.828 100.5,373C 101.056,373.383 101.389,373.883 101.5,374.5C 99.5,374.5 98.5,373.5 98.5,371.5 Z"/></g>
<g><path style="opacity:1" fill="#feedc4" d="M 105.5,376.5 C 111.746,376.965 117.08,379.298 121.5,383.5C 121.167,383.5 120.833,383.5 120.5,383.5C 115.179,381.733 110.179,379.399 105.5,376.5 Z"/></g>
<g><path style="opacity:1" fill="#f4b73e" d="M 120.5,383.5 C 120.833,383.5 121.167,383.5 121.5,383.5C 123.544,384.508 125.544,385.508 127.5,386.5C 129.751,387.015 131.751,388.015 133.5,389.5C 130.09,389.543 126.757,389.043 123.5,388C 121.859,386.871 120.859,385.371 120.5,383.5 Z"/></g>
<g><path style="opacity:1" fill="#ffefc6" d="M 127.5,386.5 C 129.527,386.338 131.527,386.505 133.5,387C 136.093,387.886 138.093,389.386 139.5,391.5C 137.5,390.833 135.5,390.167 133.5,389.5C 131.751,388.015 129.751,387.015 127.5,386.5 Z"/></g>
<g><path style="opacity:1" fill="#f9ca74" d="M 284.5,383.5 C 281.551,385.228 278.551,387.062 275.5,389C 268.928,391.047 262.262,392.881 255.5,394.5C 264.888,390.309 274.554,386.643 284.5,383.5 Z"/></g>
<g><path style="opacity:1" fill="#f1b420" d="M 133.5,389.5 C 135.5,390.167 137.5,390.833 139.5,391.5C 141.631,392.314 143.964,392.814 146.5,393C 147.056,393.383 147.389,393.883 147.5,394.5C 145.131,394.851 142.797,395.018 140.5,395C 137.372,394.111 135.039,392.278 133.5,389.5 Z"/></g>
<g><path style="opacity:1" fill="#feeaba" d="M 139.5,391.5 C 142.187,391.336 144.854,391.503 147.5,392C 151.124,392.949 154.457,394.449 157.5,396.5C 154.167,395.833 150.833,395.167 147.5,394.5C 147.389,393.883 147.056,393.383 146.5,393C 143.964,392.814 141.631,392.314 139.5,391.5 Z"/></g>
<g><path style="opacity:1" fill="#fdc265" d="M 255.5,394.5 C 253.095,395.768 250.428,396.435 247.5,396.5C 249.838,394.96 252.505,394.294 255.5,394.5 Z"/></g>
<g><path style="opacity:1" fill="#ffe1a4" d="M 159.5,396.5 C 165.184,396.261 170.518,397.261 175.5,399.5C 169.858,399.504 164.525,398.504 159.5,396.5 Z"/></g>
<g><path style="opacity:1" fill="#f9edaa" d="M 239.5,397.5 C 234.384,398.806 229.051,399.473 223.5,399.5C 228.583,397.922 233.916,397.255 239.5,397.5 Z"/></g>
<g><path style="opacity:1" fill="#f8c76c" d="M 175.5,399.5 C 191.486,400.324 207.486,400.657 223.5,400.5C 217.009,401.166 210.342,401.5 203.5,401.5C 193.948,401.702 184.615,401.035 175.5,399.5 Z"/></g>
<g><path style="opacity:1" fill="#fff2be" d="M 0.5,399.5 C 0.833333,399.5 1.16667,399.5 1.5,399.5C 1.5,410.167 1.5,420.833 1.5,431.5C 1.38971,442.185 1.72304,452.852 2.5,463.5C 1.69088,461.708 1.19088,459.708 1,457.5C 0.50005,438.17 0.333383,418.836 0.5,399.5 Z"/></g>
<g><path style="opacity:1" fill="#f0af31" d="M 1.5,431.5 C 2.82134,441.974 3.48801,452.641 3.5,463.5C 3.16667,463.5 2.83333,463.5 2.5,463.5C 1.72304,452.852 1.38971,442.185 1.5,431.5 Z"/></g>
<g><path style="opacity:1" fill="#f7da8a" d="M 509.5,399.5 C 509.833,399.5 510.167,399.5 510.5,399.5C 510.667,418.503 510.5,437.503 510,456.5C 509.814,459.036 509.314,461.369 508.5,463.5C 509.278,442.176 509.611,420.843 509.5,399.5 Z"/></g>
<g><path style="opacity:1" fill="#faf5d9" d="M 508.5,463.5 C 507.735,468.657 507.735,472.99 508.5,476.5C 507.757,475.092 506.923,473.759 506,472.5C 505.764,474.119 504.931,475.119 503.5,475.5C 505.186,471.424 506.853,467.424 508.5,463.5 Z"/></g>
<g><path style="opacity:1" fill="#fdfcf1" d="M -0.5,399.5 C -0.166667,399.5 0.166667,399.5 0.5,399.5C 0.333383,418.836 0.50005,438.17 1,457.5C 1.19088,459.708 1.69088,461.708 2.5,463.5C 2.83333,463.5 3.16667,463.5 3.5,463.5C 3.98023,466.443 4.98023,469.11 6.5,471.5C 9.89414,481.547 15.8941,489.547 24.5,495.5C 24.4142,496.496 24.7476,497.329 25.5,498C 27.6284,498.655 29.6284,499.489 31.5,500.5C 31.3691,501.376 31.7025,502.043 32.5,502.5C 37.3185,505.119 42.3185,507.286 47.5,509C 52.8229,509.499 58.1563,509.666 63.5,509.5C 175.495,510.449 287.495,510.782 399.5,510.5C 399.5,510.833 399.5,511.167 399.5,511.5C 266.167,511.5 132.833,511.5 -0.5,511.5C -0.5,474.167 -0.5,436.833 -0.5,399.5 Z"/></g>
<g><path style="opacity:1" fill="#f9dc96" d="M 501.5,479.5 C 501.25,481.674 500.25,483.341 498.5,484.5C 498.592,482.152 499.592,480.486 501.5,479.5 Z"/></g>
<g><path style="opacity:1" fill="#fdfcf8" d="M 510.5,399.5 C 510.833,399.5 511.167,399.5 511.5,399.5C 511.5,436.833 511.5,474.167 511.5,511.5C 474.167,511.5 436.833,511.5 399.5,511.5C 399.5,511.167 399.5,510.833 399.5,510.5C 418.503,510.667 437.503,510.5 456.5,510C 459.036,509.814 461.369,509.314 463.5,508.5C 468.752,506.213 474.086,503.879 479.5,501.5C 486.177,496.153 492.51,490.486 498.5,484.5C 500.25,483.341 501.25,481.674 501.5,479.5C 502.674,478.486 503.34,477.153 503.5,475.5C 504.931,475.119 505.764,474.119 506,472.5C 506.923,473.759 507.757,475.092 508.5,476.5C 507.735,472.99 507.735,468.657 508.5,463.5C 509.314,461.369 509.814,459.036 510,456.5C 510.5,437.503 510.667,418.503 510.5,399.5 Z"/></g>
<g><path style="opacity:1" fill="#eeb647" d="M 24.5,495.5 C 26.6984,496.014 28.6984,497.014 30.5,498.5C 31.2975,498.957 31.6309,499.624 31.5,500.5C 29.6284,499.489 27.6284,498.655 25.5,498C 24.7476,497.329 24.4142,496.496 24.5,495.5 Z"/></g>
<g><path style="opacity:1" fill="#f3b537" d="M 31.5,500.5 C 33.1992,500.34 34.8659,500.506 36.5,501C 39.5223,504.921 43.0223,505.421 47,502.5C 47.4935,504.134 47.6602,505.801 47.5,507.5C 53.2709,506.887 58.6042,507.554 63.5,509.5C 58.1563,509.666 52.8229,509.499 47.5,509C 42.3185,507.286 37.3185,505.119 32.5,502.5C 31.7025,502.043 31.3691,501.376 31.5,500.5 Z"/></g>
<g><path style="opacity:1" fill="#f2a906" d="M 430.5,506.5 C 420.167,506.5 409.833,506.5 399.5,506.5C 287.498,506.833 175.498,506.5 63.5,505.5C 71.5,505.167 79.5,504.833 87.5,504.5C 199.5,505.833 311.5,505.833 423.5,504.5C 431.5,504.833 439.5,505.167 447.5,505.5C 441.872,506.495 436.206,506.829 430.5,506.5 Z"/></g>
<g><path style="opacity:1" fill="#fe9d00" d="M 399.5,506.5 C 409.833,506.5 420.167,506.5 430.5,506.5C 429.048,507.302 427.382,507.802 425.5,508C 416.657,508.17 407.99,508.67 399.5,509.5C 307.499,509.667 215.499,509.5 123.5,509C 215.611,507.841 307.611,507.008 399.5,506.5 Z"/></g>
<g><path style="opacity:1" fill="#fce5a5" d="M 463.5,508.5 C 461.369,509.314 459.036,509.814 456.5,510C 437.503,510.5 418.503,510.667 399.5,510.5C 399.5,510.167 399.5,509.833 399.5,509.5C 420.843,509.611 442.176,509.278 463.5,508.5 Z"/></g>
</svg>
